<svg width="800" height="800" viewBox="0 0 800 800" fill="none" xmlns="http://www.w3.org/2000/svg">
<g clip-path="url(#clip0_1_2)">
<path d="M316.667 159.259V66.6667H216.667V233.333" stroke="black" stroke-width="66.6667" stroke-linecap="round" stroke-linejoin="round"/>
<path d="M483.333 159.259V66.6667H583.333V233.333" stroke="black" stroke-width="66.6667" stroke-linecap="round" stroke-linejoin="round"/>
<path d="M183.333 333.333C183.333 241.287 257.953 166.667 350 166.667H450C542.047 166.667 616.667 241.287 616.667 333.333V666.667C616.667 703.485 586.818 733.333 550 733.333H250C213.182 733.333 183.333 703.485 183.333 666.667V333.333Z" fill="#2F88FF" stroke="black" stroke-width="66.6667" stroke-linecap="round" stroke-linejoin="round"/>
<path d="M183.333 483.333H83.3334V650H183.333" stroke="black" stroke-width="66.6667" stroke-linecap="round" stroke-linejoin="round"/>
<path d="M616.667 483.333H716.667V650H616.667" stroke="black" stroke-width="66.6667" stroke-linecap="round" stroke-linejoin="round"/>
<path d="M466.667 383.333V450" stroke="white" stroke-width="66.6667" stroke-linecap="round" stroke-linejoin="round"/>
<path d="M283.333 383.333H458.333H516.667" stroke="white" stroke-width="66.6667" stroke-linecap="round" stroke-linejoin="round"/>
</g>
<defs>
<clipPath id="clip0_1_2">
<rect width="800" height="800" fill="white"/>
</clipPath>
</defs>
</svg>
